<svg xmlns="http://www.w3.org/2000/svg" xmlns:xlink="http://www.w3.org/1999/xlink" width="1136.814" height="322.314" viewBox="0 0 1136.814 322.314"><defs><clipPath id="a"><rect width="1136.814" height="322.314" fill="none"/></clipPath><clipPath id="b"><rect width="1136.69" height="322.313" transform="translate(0.12 0.001)" fill="none"/></clipPath></defs><g clip-path="url(#a)"><path d="M167.634,322.314a86.966,86.966,0,1,0-86.966-86.966,86.967,86.967,0,0,0,86.966,86.966" fill="#fff"/></g><g clip-path="url(#b)"><path d="M167.566,0l-51.09,51.711L283.437,219.477l51.7-50.163h0Z" fill="#fff"/><path d="M167.566,0,0,168.551l51.7,50.163L217.36,52.25,167.568,0Z" fill="#fff"/></g><g clip-path="url(#a)"><path d="M607.372,285.686v5.939h11.917v5.9H607.372v9.256h-7.637v-27h21.173v5.9Z" fill="#fff"/><path d="M636.3,299.608h-4.165v7.173h-7.637v-27h12.342A15.4,15.4,0,0,1,643.2,281a9.822,9.822,0,0,1,4.262,13.884,9.256,9.256,0,0,1-3.915,3.413l5.823,8.484h-8.176Zm3.625-12.765a5.264,5.264,0,0,0-3.548-1.041h-4.242v7.9h4.242a5.339,5.339,0,0,0,3.548-1.021,3.624,3.624,0,0,0,1.2-2.913,3.683,3.683,0,0,0-1.2-2.93" fill="#fff"/><path d="M671.121,301.536H659.705l-2.121,5.245h-7.79l11.917-27h7.52l11.955,27h-7.944Zm-2.238-5.631-3.47-8.638-3.471,8.638Z" fill="#fff"/><path d="M709.031,279.785v27h-6.286L690.828,292.4v14.384h-7.483v-27h6.287l11.916,14.385V279.785Z" fill="#fff"/><path d="M720.272,305.528a13.41,13.41,0,0,1-5.3-5,14.6,14.6,0,0,1,0-14.5,13.407,13.407,0,0,1,5.3-4.994,15.971,15.971,0,0,1,7.617-1.794,16.354,16.354,0,0,1,6.672,1.312,12.834,12.834,0,0,1,4.937,3.779l-4.86,4.4a8,8,0,0,0-6.363-3.162,7.865,7.865,0,0,0-3.915.964,6.685,6.685,0,0,0-2.66,2.719,9.068,9.068,0,0,0,0,8.061,6.682,6.682,0,0,0,2.66,2.718,7.855,7.855,0,0,0,3.915.964,8,8,0,0,0,6.363-3.162l4.86,4.4a12.844,12.844,0,0,1-4.937,3.779,16.354,16.354,0,0,1-6.672,1.311,15.971,15.971,0,0,1-7.617-1.793" fill="#fff"/><path d="M768.576,279.785v27h-7.637V296.253H750.527v10.528H742.89v-27h7.637v10.143h10.412V279.785Z" fill="#fff"/><rect width="7.637" height="26.996" transform="translate(773.974 279.785)" fill="#fff"/><path d="M790.172,306.512a15.645,15.645,0,0,1-5.014-2.16l2.507-5.631a16.153,16.153,0,0,0,4.2,1.928,15.983,15.983,0,0,0,4.7.733q4.4,0,4.4-2.2a1.82,1.82,0,0,0-1.254-1.716,23.036,23.036,0,0,0-4.03-1.177,38.368,38.368,0,0,1-5.09-1.407,8.559,8.559,0,0,1-3.509-2.41A6.51,6.51,0,0,1,785.621,288a7.756,7.756,0,0,1,1.349-4.455A9.053,9.053,0,0,1,791,280.4a16.593,16.593,0,0,1,6.576-1.157,23.169,23.169,0,0,1,5.244.6,16.051,16.051,0,0,1,4.551,1.755l-2.353,5.669a15.719,15.719,0,0,0-7.481-2.082,6.283,6.283,0,0,0-3.317.674,2.026,2.026,0,0,0-1.041,1.755,1.736,1.736,0,0,0,1.234,1.619,22.213,22.213,0,0,0,3.972,1.12,37.262,37.262,0,0,1,5.11,1.407,8.835,8.835,0,0,1,3.51,2.391,6.392,6.392,0,0,1,1.485,4.455,7.588,7.588,0,0,1-1.351,4.4,9.192,9.192,0,0,1-4.049,3.143,16.379,16.379,0,0,1-6.556,1.176,24.987,24.987,0,0,1-6.363-.809" fill="#fff"/><rect width="7.636" height="26.996" transform="translate(812 279.785)" fill="#fff"/><path d="M850.758,279.785v27h-6.286L832.555,292.4v14.384h-7.482v-27h6.286l11.917,14.385V279.785Z" fill="#fff"/><path d="M874.245,292.7h6.749v11.184a17.636,17.636,0,0,1-5.322,2.546,21.23,21.23,0,0,1-6.017.886,16.087,16.087,0,0,1-7.636-1.793,13.375,13.375,0,0,1-5.322-5,14.6,14.6,0,0,1,0-14.5,13.3,13.3,0,0,1,5.361-4.994,16.477,16.477,0,0,1,7.751-1.794,17.279,17.279,0,0,1,6.788,1.273,13.094,13.094,0,0,1,5.014,3.664l-4.859,4.4a8.57,8.57,0,0,0-6.557-3.008,7.261,7.261,0,0,0-7.713,7.713,8.142,8.142,0,0,0,.964,3.991,6.913,6.913,0,0,0,2.7,2.739,7.908,7.908,0,0,0,3.972.983,9.748,9.748,0,0,0,4.127-.887Z" fill="#fff"/><path d="M920.87,279.785v27h-6.286L902.667,292.4v14.384h-7.483v-27h6.286l11.917,14.385V279.785Z" fill="#fff"/><path d="M947.943,300.881v5.9H926.268v-27h21.173v5.9H933.828v4.55h11.994v5.708H933.828v4.937Z" fill="#fff"/><path d="M957.931,285.84h-8.292v-6.055H973.82v6.055h-8.253v20.941h-7.636Z" fill="#fff"/><path d="M1018.36,279.785l-8.75,27h-8.18l-5.165-16.428-5.4,16.428H982.69l-8.754-27H981.8l5.438,17.239,5.708-17.239h7.019l5.442,17.394,5.66-17.394Z" fill="#fff"/><path d="M1026.71,305.509a13.8,13.8,0,0,1,0-24.451,17.236,17.236,0,0,1,15.39,0,13.8,13.8,0,0,1,0,24.451,17.245,17.245,0,0,1-15.39,0m11.4-5.477a6.947,6.947,0,0,0,2.62-2.718,8.859,8.859,0,0,0,0-8.061,6.949,6.949,0,0,0-2.62-2.719,7.6,7.6,0,0,0-7.41,0,6.949,6.949,0,0,0-2.62,2.719,8.941,8.941,0,0,0,0,8.061,6.947,6.947,0,0,0,2.62,2.718,7.6,7.6,0,0,0,7.41,0" fill="#fff"/><path d="M1065.22,299.608h-4.16v7.173h-7.64v-27h12.34a15.388,15.388,0,0,1,6.36,1.215,9.837,9.837,0,0,1,4.27,13.884,9.293,9.293,0,0,1-3.92,3.413l5.82,8.484h-8.17Zm3.63-12.765a5.288,5.288,0,0,0-3.55-1.041h-4.24v7.9h4.24a5.363,5.363,0,0,0,3.55-1.021,3.64,3.64,0,0,0,1.19-2.913,3.7,3.7,0,0,0-1.19-2.93" fill="#fff"/><path d="M1092.37,296.985l-2.85,3.047v6.749h-7.56v-27h7.56v11.223l10.45-11.223h8.41l-11.03,11.955,11.6,15.041h-8.87Z" fill="#fff"/></g><g clip-path="url(#b)"><path d="M1124.37,102a12.193,12.193,0,0,1-12.238-12.241,12.494,12.494,0,0,1,3.565-8.847,12.084,12.084,0,0,1,8.673-3.6,12.419,12.419,0,0,1,12.448,12.451,12.039,12.039,0,0,1-3.685,8.678A12.484,12.484,0,0,1,1124.37,102Zm0-22.5a10.151,10.151,0,0,0,0,20.3,10.3,10.3,0,0,0,7.23-2.939,9.861,9.861,0,0,0,3.022-7.107A10.223,10.223,0,0,0,1124.37,79.5Z" fill="#fff"/></g><g clip-path="url(#a)"><path d="M1119.68,82.428h6.44a3.8,3.8,0,0,1,4,4,3.4,3.4,0,0,1-1.97,3.366c1.05.513,1.62.949,1.62,3.586,0,2.068,0,2.581.57,2.817v.373h-2.95a10.738,10.738,0,0,1-.28-2.853c0-1.931-.11-2.68-2.08-2.68h-2.74v5.533h-2.61Zm5.72,6.227c1.38,0,2.06-.532,2.06-1.928a1.69,1.69,0,0,0-1.86-1.855h-3.31v3.783Z" fill="#fff"/><path d="M603.446,187.607c-.976,12.612-1.91,23.108-5.515,34.528-1.82,5.767-6.449,12.948-11.776,16.513-8.329,5.575-20.562,4.973-28.256,1.432-16.467-7.58-18.85-36.054-21.061-52.919-2.814-21.467-3.988-44.661-2.991-61.175a129.669,129.669,0,0,1,5.733-30.525c1.632-4.915,4.33-10.675,8.972-14.136,4.362-3.253,11.978-4.42,18.069-4.34,9.6.125,25.548.712,36.545,7.186,13.742,8.09,4.654,29.048-6.257,39.115a218.829,218.829,0,0,1-18.949,15.746c-4.235,3.03-8.172,5.515-10.685,4.476-4.767-1.97-3.9-6.572-1.589-10.978,3.739-7.131,19.608-18.112,10.564-29.268-3.537-4.187-10.131-5.957-14.406-4.074-5.331,2.4-8.168,11.955-9.3,18.416-2.991,17.014-3.171,29.665-.677,46.3,2.047,13.659,7.4,25.9,14.851,31.205,4.283,3.048,10.556,3.177,13.594.066,5.754-5.891,7.437-15.023,6.024-22.866-1.251-6.939-.984-16.377,7.614-14.483a5.955,5.955,0,0,1,2.559,1.215c2.67,2.226,8.436,9.233,6.941,28.562" fill="#fff"/><path d="M856.172,187.607c-.976,12.612-1.909,23.108-5.514,34.528-1.821,5.767-6.449,12.948-11.777,16.513-8.329,5.575-20.562,4.973-28.256,1.432-16.466-7.58-18.85-36.054-21.061-52.919-2.814-21.467-3.987-44.661-2.99-61.175a129.67,129.67,0,0,1,5.732-30.525c1.632-4.915,4.331-10.675,8.973-14.136,4.361-3.253,11.977-4.42,18.068-4.34,9.6.125,25.548.712,36.546,7.186,13.742,8.09,4.653,29.048-6.258,39.115a218.83,218.83,0,0,1-18.949,15.746c-4.235,3.03-8.172,5.515-10.685,4.476-4.766-1.97-3.9-6.572-1.588-10.978,3.738-7.131,19.607-18.112,10.563-29.268-3.537-4.187-10.13-5.957-14.406-4.074-5.33,2.4-8.168,11.955-9.3,18.416-2.991,17.014-3.171,29.665-.677,46.3,2.047,13.659,7.4,25.9,14.852,31.205,4.283,3.048,10.555,3.177,13.594.066,5.754-5.891,7.436-15.023,6.023-22.866-1.25-6.939-.983-16.377,7.614-14.483a5.95,5.95,0,0,1,2.559,1.215c2.67,2.226,8.436,9.233,6.941,28.562" fill="#fff"/><path d="M620.409,79.045c5.748-2.764,15.047-1.481,20.042,3.019,7.111,6.406,7.547,14.672,8.52,22.588,2.329,18.956,5.792,34.886,16.41,40.171,8.786,4.373,14.613-6.223,11.507-15.019-3.382-9.579-10.845-17.113-16.3-25.73-5.548-8.764-5.548-17.009,2.072-23.6,6.44-5.566,18.544-2.882,22.457,2.557,6,8.34,4.878,25.581,4.678,36.851-.347,19.466-.312,97.621-.654,114.51-.143,7.088-7.558,8.4-14.474,8.337-19.907-.18-13.646-20.427-14.045-40.6-.312-15.732-4.19-33.162-11.612-47.558-4.08-7.09-12.358-13.059-12.358-7.33,0,22.645.18,70.313.748,85.653.192,5.193-2.051,8.816-6.724,9.565-9.86,1.582-17.013-2.388-15.707-14.695,3.526-33.224,5.115-59.929,2.67-90.038-1.184-14.575-2.319-28.371-3.141-42.079,0,0-.693-13.426,5.912-16.6" fill="#fff"/><path d="M776.665,114.246c-1.62-14.581-4.735-28.912-20.125-34.683-11.485-4.307-25.231-2.431-31.591.537-7.478,3.49-12.246,9.567-15.327,17.689-8.973,23.646-7.818,63.081-3.076,91.838,3.263,19.784,9.013,49.832,24.509,52.477,5.109.873,15.2,1.122,20.687-.747,4.539-1.548,7.4-5.008,9.294-8.351,6.408-11.339,11.426-30.1,13.675-46.035,2.577-18.267,2.951-30.729,2.951-53.285,0-4.986-.431-14.349-1-19.44m-15.514,38.67c-.561,8.062-1.06,13.42-2.243,22.35-.958,7.233-1.185,16.617-6.256,20.319-7.166,5.231-10.88-3.328-13.856-13.017-1.594-5.19-2.981-9.55-3.815-13.759-.811-4.093-.686-7.084-4.71-11.231-4.238-4.369-10.107-6.087-10.964-14.392-1.586-15.357,3.265-40.987,17.257-39.052,22.655,3.133,25.4,26.686,25.086,39.594-.055,2.3-.339,6.893-.5,9.188" fill="#fff"/><path d="M937.362,129.411c-3.611-19.562-7.958-30.271-15.077-40.97-6.545-9.836-12.029-11.207-20.129-11.456-6.655-.205-15.046,3.046-20.374,18.28-16.367,46.8-17.074,86.926-18.279,134.63-.133,5.286.836,12.191,5.1,12.389,6.884.319,9.625-1.924,9.644-12.837.014-8.1-1.522-16.833,2.074-23.408,4.931-8.892,17.232-13.413,26.1-13.114,6.076.2,7.742,5.316,5.069,11.1-3.9,8.657-10.989,12.734-10.754,25.808.049,2.751.8,8.759,4.5,10.764,4.391,2.375,11.4,1.682,21.216,1.682,7.664,0,11.144-1.2,12.15-8.692,3.468-25.816,7.727-55.58-1.246-104.181m-51.219,7.453c1.05-5.764,3.16-11.556,4.736-14,3.863-5.982,8.228-10.768,12.475-2.007,4.6,9.484,5.68,17.511,6.739,26.456.912,7.7,1.472,11.106-3.94,13.138-23.984,9.006-24.185,4.51-21.38-16.028m1.466,39.854c-3.3.928-5.753-1.85-2.4-4.524,6.013-4.8,11.465-6.886,20.189-8.381a24.018,24.018,0,0,1,7.134-.062c4.922.778,4.268,5.452,1.215,6.106" fill="#fff"/><path d="M1104.6,129.411c-3.61-19.562-7.96-30.271-15.08-40.97-6.54-9.836-12.03-11.207-20.13-11.456-6.65-.205-15.04,3.046-20.37,18.28-16.37,46.8-17.07,86.926-18.28,134.63-.13,5.286.84,12.191,5.1,12.389,6.89.319,9.63-1.924,9.65-12.837.01-8.1-1.53-16.833,2.07-23.408,4.93-8.892,17.23-13.413,26.1-13.114,6.08.2,7.74,5.316,5.07,11.1-3.9,8.657-10.99,12.734-10.75,25.808.05,2.751.79,8.759,4.5,10.764,4.39,2.375,11.4,1.682,21.22,1.682,7.66,0,11.14-1.2,12.15-8.692,3.46-25.816,7.72-55.58-1.25-104.181m-51.22,7.453c1.05-5.764,3.16-11.556,4.74-14,3.86-5.982,8.23-10.768,12.47-2.007,4.6,9.484,5.68,17.511,6.74,26.456.91,7.7,1.47,11.106-3.94,13.138-23.98,9.006-24.18,4.51-21.38-16.028m1.47,39.854c-3.31.928-5.76-1.85-2.4-4.524,6.01-4.8,11.46-6.886,20.18-8.381a24.054,24.054,0,0,1,7.14-.062c4.92.778,4.27,5.452,1.21,6.106" fill="#fff"/><path d="M1016.62,81.284c18.67,4.391,11.65,29.971,2.49,39.4-7.53,7.741-22.274,8.23-18.04-3.49.84-2.325,1.75-5.477,2.59-8.842,3.14-12.568-19.6-21.519-29.922-15.1-6.5,4.642-5.437,11.638-1.389,17.434,4.112,5.888,9.346,10.748,13.8,14.7,13.165,11.665,26.95,23.9,34.21,40.417,4.98,11.341,5.34,23.668,4.61,34.893-1.37,21.061-3.8,31.443-11.96,37.511-4.72,3.507-17.079,4.228-25.8,4.119-22.431-.28-33.46-3.832-37.216-20.137-3.506-15.224-1.6-31.61,2.941-46.967,1.313-4.435,3.669-9.5,7.522-12.185,12.77-6.87,23.9,17.382,27.483,27.2,3.009,8.252,9.178,20.9,2.822,23.206-5.057,1.834-7.8-3.73-10.033-9.287-2.18-5.418-7.843-8.322-11.608-2.211-4.7,7.461-6.246,19.642,1.138,25.577,9.1,7.317,25.063,2.433,31.623-6.719,8.04-11.23,7.12-31.775-2.625-43.413-6.157-7.353-12.109-12.3-20.43-21.092s-13.057-14.578-18.647-26.158c-7.27-15.06-15.4-42.873,1.328-49.135,0,0,16.169-8.88,55.114.28" fill="#fff"/><path d="M492.6,162.609c7.094-4.458,15.687-9.588,22.828-13.657,3.683-2.1,6.178-5.489,4.113-8.911-2.181-3.614-6.373-2.613-8.974-1.148-7.788,4.388-11.941,6.921-19.19,10.931-5.857,3.24-8.91,4.3-10.53,1.121-1.8-3.525,2.741-6.48,14.844-13.677,9.381-5.579,10.765-6.137,23.458-13.558,11.672-6.824,11.919-30.588-1.291-39.062-12.174-7.809-26.84-8.324-40.886-4.568-20.114,5.378-24.3,24.993-26.572,42.18a217.05,217.05,0,0,0-2.074,36.134c.26,16.247.784,29.852,4.14,47.594,3.083,16.3,9.54,36.449,25.264,36.449h22c5,0,8.1-6.1,10.4-9.493,12.6-18.507,16.076-52.962,9.007-63.649-2.262-3.42-8.7-3.333-10.565.156-4.482,8.367,1.179,19.73-2.584,28.857-2.489,6.973-12.245,11.644-19.66,7.407-7.78-4.445-10.281-17.072-6.48-27.354a31.977,31.977,0,0,1,12.75-15.752m-17.71-29.273c-5.711-2.81-4.237-26.4-1.134-30.4,6.469-8.354,29.695,7.888,27.3,18.1a8.445,8.445,0,0,1-4.1,5.17c-7.92,5.127-16.635,10.057-22.079,7.136Z" fill="#fff"/><path d="M349,94.941c.992-9.432,4.246-17.53,13.724-17.383,18.045.279,20,0,35,0h31c15.8,0,18.9,26.884,15.949,39.29-3.3,13.841-12.215,30.169-17.972,27.09a6.069,6.069,0,0,1-3.547-5.531c-.752-10.443,8.688-23.41-.254-32.528-2.6-2.653-8.388-5.664-11.319-1.67-2.688,3.663.493,13.325.875,18.275a164.3,164.3,0,0,1-.063,29.664c-2.506,27.628-3.325,56.39.778,83.875.259,4.5-.826,6.318-5.058,6.422-5.1.126-16.28.2-22.13.211-4.65.009-6.068-.435-8.212-2.729-4.432-5.39-4.063-14.623-3.569-21.361.952-13,4.926-26.23,8.129-40.38,1.784-7.886,14.853-54.856,5.638-67.259-2.183-2.938-5.391-5.338-10.7-3.23-4.817,1.914-5.265,8.28-3.693,12.828,1.779,6.149,8.65,11.406,6.521,17.49-2.806,8.017-10.878,3.9-15.372-.076a26.343,26.343,0,0,1-2-1.892c-3.97-4.324-15.912-20.31-13.723-41.106" fill="#fff"/></g></svg>